<svg xmlns="http://www.w3.org/2000/svg" fill-rule="evenodd" stroke-linejoin="round" stroke-miterlimit="2" clip-rule="evenodd" viewBox="0 0 25 24"><g transform="translate(-39.954 -40)"><rect width="24" height="24" x="40" y="40" fill="none"/><path fill="#2c2c2c" d="M12.186,17.435C12.15,17.498 12.112,17.559 12.073,17.619C11.902,17.884 11.684,18.145 11.449,18.637C11.328,18.891 11.439,19.132 11.529,19.374C11.652,19.708 11.803,20.04 11.898,20.372C12.13,21.181 12.117,21.993 11.273,22.836C10.998,23.111 10.578,23.179 10.231,23.003C8.493,22.124 6.655,20.71 5.463,19.023C4.612,17.818 4.09,16.474 4.1,15.098C4.064,11.269 6.461,8.678 8.432,7.268C8.977,6.879 9.353,6.263 9.635,5.579C10.119,4.403 10.31,3.018 10.375,1.946C10.393,1.637 10.569,1.36 10.839,1.211C11.11,1.062 11.438,1.063 11.709,1.213C14.781,2.913 15.623,5.751 15.675,8.177C15.724,10.508 15.032,12.43 15.032,12.43C14.864,12.898 14.348,13.141 13.881,12.974C13.413,12.806 13.17,12.291 13.337,11.823C13.337,11.823 13.917,10.192 13.875,8.215C13.843,6.686 13.432,4.932 12.003,3.62C11.866,4.499 11.644,5.427 11.299,6.265C10.882,7.276 10.285,8.156 9.48,8.732C7.874,9.881 5.87,11.963 5.9,15.096C5.892,16.12 6.308,17.098 6.934,17.985C7.762,19.158 8.961,20.171 10.179,20.915C10.171,20.88 10.161,20.846 10.151,20.812C10.084,20.598 9.991,20.385 9.906,20.171C9.611,19.419 9.446,18.654 9.825,17.862C10.056,17.376 10.271,17.069 10.456,16.799C10.627,16.549 10.761,16.349 10.817,15.892C10.852,15.597 11.031,15.339 11.294,15.202C11.557,15.065 11.87,15.066 12.132,15.205C14.313,16.363 15.127,18.384 15.418,20.741C17.181,19.587 18.623,17.764 18.684,15.728C18.757,13.285 17.802,12.065 16.372,10.023C16.087,9.616 16.186,9.054 16.593,8.769C17,8.485 17.561,8.584 17.846,8.99C19.539,11.407 20.569,12.891 20.483,15.781C20.39,18.902 17.849,21.716 15.011,23.018C14.733,23.146 14.408,23.123 14.15,22.958C13.894,22.793 13.738,22.511 13.736,22.207C13.643,20.337 13.398,18.586 12.186,17.435Z" transform="translate(40.262 39.873)"/></g></svg>