<svg height="512pt" viewBox="0 -20 512.0001 512" width="512pt" xmlns="http://www.w3.org/2000/svg"><path d="m510.148438 372.945312-42.089844-140.082031c-3.359375-11.1875-10.875-20.390625-21.160156-25.925781-10.28125-5.53125-22.105469-6.726562-33.289063-3.367188l-32.441406 9.746094c4.695312-7.34375 7.257812-16.152344 6.824219-25.503906l-6.765626-146.113281c-.542968-11.667969-5.59375-22.421875-14.222656-30.289063-8.632812-7.867187-19.8125-11.902344-31.476562-11.363281l-146.113282 6.769531c-11.664062.539063-22.421874 5.589844-30.289062 14.222656-7.867188 8.628907-11.902344 19.808594-11.359375 31.472657l6.765625 146.117187c.140625 3.046875.601562 6.003906 1.332031 8.851563l-92.421875-9.644531c-11.613281-1.210938-23.003906 2.171874-32.074218 9.527343-9.070313 7.355469-14.730469 17.804688-15.945313 29.417969l-15.179687 145.484375c-1.214844 11.613281 2.171874 23.007813 9.527343 32.078125 7.355469 9.066406 17.804688 14.730469 29.417969 15.941406l145.484375 15.179688c1.542969.160156 3.085937.238281 4.617187.238281 9.984376 0 19.59375-3.390625 27.457032-9.765625 9.070312-7.359375 14.730468-17.804688 15.941406-29.421875l11.226562-107.570313c.105469.386719.199219.777344.316407 1.164063l42.089843 140.085937c3.359376 11.183594 10.871094 20.390626 21.15625 25.921876 6.457032 3.476562 13.523438 5.238281 20.65625 5.238281 4.226563 0 8.476563-.621094 12.636719-1.871094l140.085938-42.085937c23.085937-6.9375 36.226562-31.363282 29.292969-54.453126zm-328.851563-331.695312c2.46875-2.707031 5.84375-4.292969 9.503906-4.460938l146.117188-6.769531c.214843-.007812.433593-.015625.648437-.015625 3.421875 0 6.679688 1.257813 9.226563 3.582032 2.707031 2.46875 4.289062 5.839843 4.460937 9.5l6.765625 146.117187c.351563 7.554687-5.511719 13.984375-13.0625 14.335937l-146.117187 6.765626c-7.574219.332031-13.984375-5.511719-14.335938-13.066407l-6.769531-146.113281c-.167969-3.660156 1.097656-7.167969 3.5625-9.875zm36.730469 216.671875-15.179688 145.480469c-.378906 3.644531-2.15625 6.921875-5 9.230468-2.847656 2.308594-6.425781 3.367188-10.0625 2.992188l-145.484375-15.179688c-3.644531-.382812-6.921875-2.15625-9.226562-5.003906-2.308594-2.84375-3.371094-6.417968-2.992188-10.0625l15.179688-145.484375c.382812-3.644531 2.15625-6.921875 5.003906-9.226562 2.84375-2.308594 6.417969-3.371094 10.0625-2.992188l145.480469 15.179688c3.644531.378906 6.921875 2.15625 9.230468 5 2.308594 2.847656 3.367188 6.421875 2.988282 10.066406zm29.144531 9.78125.699219-6.667969c.824218-7.925781-.492188-15.742187-3.742188-22.792968l63.929688-2.960938-34.535156 10.375c-11.882813 3.570312-21.117188 11.78125-26.351563 22.046875zm225.050781 130.960937-140.085937 42.085938c-3.503907 1.054688-7.21875.679688-10.441407-1.058594-3.226562-1.734375-5.585937-4.621094-6.640624-8.132812l-42.085938-140.082032c-2.179688-7.242187 1.945312-14.90625 9.1875-17.082031l140.085938-42.089843c1.304687-.390626 2.636718-.585938 3.964843-.585938 2.238281 0 4.453125.554688 6.480469 1.644531 3.226562 1.734375 5.582031 4.621094 6.636719 8.132813l42.089843 140.082031c2.171876 7.246094-1.949218 14.90625-9.191406 17.085937zm0 0"/><path d="m213.015625 130.957031c.242187 0 .484375-.007812.730469-.019531 8.273437-.394531 14.664062-7.425781 14.265625-15.699219l-1.671875-34.964843 35.4375-1.699219c8.273437-.394531 14.660156-7.425781 14.265625-15.703125-.394531-8.273438-7.398438-14.675782-15.703125-14.265625l-44.15625 2.113281c-5.675782.273438-10.90625 2.738281-14.726563 6.945312-3.820312 4.207032-5.777343 9.648438-5.503906 15.324219l2.089844 43.683594c.386719 8.03125 7.019531 14.285156 14.972656 14.285156zm0 0"/><path d="m127.519531 251.554688-43.980469-4.476563c-5.644531-.578125-11.191406 1.082031-15.597656 4.671875-4.40625 3.59375-7.144531 8.683594-7.722656 14.335938l-4.429688 43.511718c-.839843 8.242188 5.164063 15.601563 13.40625 16.441406.515626.054688 1.027344.078126 1.539063.078126 7.601563 0 14.117187-5.757813 14.90625-13.484376l3.542969-34.824218 35.296875 3.59375c8.230469.84375 15.605469-5.160156 16.441406-13.40625.84375-8.242188-5.160156-15.601563-13.402344-16.441406zm0 0"/><path d="m354.980469 271.035156-42.316407 12.773438c-11.230468 3.386718-17.613281 15.277344-14.222656 26.511718l12.636719 41.871094c1.957031 6.484375 7.910156 10.667969 14.355469 10.667969 1.433594 0 2.894531-.207031 4.339844-.644531 7.933593-2.390625 12.421874-10.761719 10.027343-18.695313l-10.113281-33.511719 33.964844-10.25c7.929687-2.394531 12.417968-10.765624 10.027344-18.699218-2.394532-7.929688-10.773438-12.421875-18.699219-10.023438zm0 0"/></svg>